<svg id="Layer_1" data-name="Layer 1" xmlns="http://www.w3.org/2000/svg" viewBox="0 0 360 360"><defs><style>.cls-1{fill:#003da5;}.cls-2{fill:#fff;}</style></defs><rect class="cls-1" x="171.31" y="208.34" width="16.36" height="2.02"/><rect class="cls-1" x="171.31" y="241.85" width="16.36" height="2.02"/><path class="cls-1" d="M308.26,197a.38.38,0,0,0,.38.38h1.84a.39.39,0,0,0,.38-.38v-6.38l4.62-6.66a.37.37,0,0,0-.32-.58H313.1a.4.4,0,0,0-.32.18l-3.2,4.6-3.2-4.6a.4.4,0,0,0-.32-.18h-2a.37.37,0,0,0-.32.58l4.56,6.68Zm-13.71,0a.39.39,0,0,0,.38.38h1.86a.39.39,0,0,0,.38-.38V185.75h3.06a.38.38,0,0,0,.38-.38v-1.64a.38.38,0,0,0-.38-.38h-8.74a.38.38,0,0,0-.38.38v1.64a.38.38,0,0,0,.38.38h3.06Zm-10,0a.39.39,0,0,0,.38.38h1.86a.39.39,0,0,0,.38-.38V183.73a.39.39,0,0,0-.38-.38h-1.86a.39.39,0,0,0-.38.38Zm-13.62-1a6.43,6.43,0,0,0,4.4,1.56c2.82,0,4.6-1.9,4.6-4,0-2.58-2.24-3.74-4.18-4.52-1.62-.66-2.36-1.3-2.36-2.24a1.59,1.59,0,0,1,1.76-1.4,6.58,6.58,0,0,1,2.78,1.1.53.53,0,0,0,.7-.24l.76-1.14a.5.5,0,0,0-.12-.66,7,7,0,0,0-4-1.34c-3.18,0-4.5,2.06-4.5,3.84,0,2.36,1.88,3.56,3.76,4.32,1.68.68,2.54,1.38,2.54,2.4a1.67,1.67,0,0,1-1.82,1.54,6.62,6.62,0,0,1-3-1.24.46.46,0,0,0-.68.14l-.72,1.24c-.18.32-.08.42.1.6m-12-6.26v-4h3.26a2,2,0,0,1,2,1.94,2,2,0,0,1-2,2ZM256.29,197a.38.38,0,0,0,.38.38h1.84a.39.39,0,0,0,.38-.38v-5.1h2.22l2.66,5.3a.34.34,0,0,0,.32.18h2.1a.38.38,0,0,0,.34-.58l-2.74-5.08a4.41,4.41,0,0,0,3-4,4.33,4.33,0,0,0-4.36-4.3h-5.72a.38.38,0,0,0-.38.38Zm-13.82,0a.38.38,0,0,0,.38.38H251a.38.38,0,0,0,.38-.38v-1.64A.38.38,0,0,0,251,195h-5.92v-3.5H250a.38.38,0,0,0,.38-.38v-1.66A.39.39,0,0,0,250,189h-4.94v-3.28H251a.38.38,0,0,0,.38-.38v-1.64a.38.38,0,0,0-.38-.38h-8.14a.38.38,0,0,0-.38.38Zm-11,.36a.36.36,0,0,0,.34.22h.2a.36.36,0,0,0,.34-.22l6.2-13.46a.35.35,0,0,0-.34-.52h-2a.37.37,0,0,0-.34.22l-3.84,8.6h-.14l-3.84-8.6a.37.37,0,0,0-.34-.22h-2a.35.35,0,0,0-.34.52ZM218.85,197a.39.39,0,0,0,.38.38h1.86a.39.39,0,0,0,.38-.38V183.73a.39.39,0,0,0-.38-.38h-1.86a.39.39,0,0,0-.38.38Zm-17.43,0a.39.39,0,0,0,.38.38h1.82A.38.38,0,0,0,204,197v-8.6h0l8.36,9.18h.48a.38.38,0,0,0,.38-.36V183.73a.39.39,0,0,0-.38-.38H211a.38.38,0,0,0-.38.38V192h0l-8.32-8.84h-.5a.38.38,0,0,0-.38.36Zm-16.6-4.92a5.57,5.57,0,0,0,11.14,0v-8.32a.39.39,0,0,0-.38-.38h-1.9a.38.38,0,0,0-.38.38v8.2a2.91,2.91,0,1,1-5.82,0v-8.18a.38.38,0,0,0-.38-.38h-1.9a.39.39,0,0,0-.38.38Zm-19,3.94a6.43,6.43,0,0,0,4.4,1.56c2.82,0,4.6-1.9,4.6-4,0-2.58-2.24-3.74-4.18-4.52-1.62-.66-2.36-1.3-2.36-2.24a1.59,1.59,0,0,1,1.76-1.4,6.58,6.58,0,0,1,2.78,1.1.53.53,0,0,0,.7-.24l.76-1.14a.5.5,0,0,0-.12-.66,7,7,0,0,0-4-1.34c-3.18,0-4.5,2.06-4.5,3.84,0,2.36,1.88,3.56,3.76,4.32,1.68.68,2.54,1.38,2.54,2.4a1.67,1.67,0,0,1-1.82,1.54,6.62,6.62,0,0,1-3-1.24.46.46,0,0,0-.68.14l-.72,1.24c-.18.32-.08.42.1.6m-7,1a.39.39,0,0,0,.38.38h1.86a.39.39,0,0,0,.38-.38V183.73a.39.39,0,0,0-.38-.38h-1.86a.39.39,0,0,0-.38.38Zm-16-4.92a5.57,5.57,0,0,0,11.14,0v-8.32a.39.39,0,0,0-.38-.38h-1.9a.38.38,0,0,0-.38.38v8.2a2.91,2.91,0,1,1-5.82,0v-8.18a.38.38,0,0,0-.38-.38h-1.9a.39.39,0,0,0-.38.38Zm-15.66-1.68a4.59,4.59,0,1,1,4.58,4.58,4.63,4.63,0,0,1-4.58-4.58m-2.6,0a7.19,7.19,0,1,0,7.18-7.22,7.14,7.14,0,0,0-7.18,7.22M114.44,197a.38.38,0,0,0,.38.38h7.32a.38.38,0,0,0,.38-.38v-1.64a.38.38,0,0,0-.38-.38H117V183.73a.39.39,0,0,0-.38-.38h-1.84a.38.38,0,0,0-.38.38Zm-15.76,0a.39.39,0,0,0,.38.38h1.86a.39.39,0,0,0,.38-.38V185.75h3.06a.38.38,0,0,0,.38-.38v-1.64a.38.38,0,0,0-.38-.38H95.62a.38.38,0,0,0-.38.38v1.64a.38.38,0,0,0,.38.38h3.06ZM80,197a.39.39,0,0,0,.38.38h1.82a.38.38,0,0,0,.38-.38v-8.6h0L91,197.55h.48a.38.38,0,0,0,.38-.36V183.73a.39.39,0,0,0-.38-.38H89.63a.38.38,0,0,0-.38.38V192h0l-8.32-8.84h-.5a.38.38,0,0,0-.38.36Zm-7.6,0a.39.39,0,0,0,.38.38h1.86a.39.39,0,0,0,.38-.38V183.73a.39.39,0,0,0-.38-.38H72.81a.39.39,0,0,0-.38.38Zm-11.92-4.4,2-4.4h.06l2,4.4Zm-4.28,4.78H58a.6.6,0,0,0,.58-.4l1-2.16h6l1,2.16a.57.57,0,0,0,.58.4h1.74a.35.35,0,0,0,.34-.52L63,183.37a.34.34,0,0,0-.34-.22h-.2a.36.36,0,0,0-.34.22l-6.22,13.46a.35.35,0,0,0,.34.52M44.65,196a6.43,6.43,0,0,0,4.4,1.56c2.82,0,4.6-1.9,4.6-4,0-2.58-2.24-3.74-4.18-4.52-1.62-.66-2.36-1.3-2.36-2.24a1.59,1.59,0,0,1,1.76-1.4,6.58,6.58,0,0,1,2.78,1.1.53.53,0,0,0,.7-.24l.76-1.14a.5.5,0,0,0-.12-.66,7,7,0,0,0-4-1.34c-3.18,0-4.5,2.06-4.5,3.84,0,2.36,1.88,3.56,3.76,4.32,1.68.68,2.54,1.38,2.54,2.4A1.67,1.67,0,0,1,49,195.25,6.62,6.62,0,0,1,46,194a.46.46,0,0,0-.68.14l-.72,1.24c-.18.32-.08.42.1.6"/><path class="cls-1" d="M178.28,167a64.14,64.14,0,0,1-14.13-8.84c-9.47-7.85-14.48-17.15-14.48-26.9V91.16h17.41a4.9,4.9,0,0,1-.11-1A5.14,5.14,0,0,1,172.11,85h1.21V80.88h3.08V77.8h6.17v3.08h3.08V85h1.21a5.13,5.13,0,0,1,5,6.16H209.3v40.1c0,9.75-5,19.05-14.48,26.9A64.14,64.14,0,0,1,180.69,167l-1.2.51Z"/><path class="cls-2" d="M173.74,93.22h4.72V89.11h-6.35a1,1,0,0,0-.72,1.75Zm6.77,0h4.72l2.36-2.36a1,1,0,0,0,0-1.45,1.06,1.06,0,0,0-.73-.3h-6.35Zm8.85,29.19a5.83,5.83,0,0,1,5.82,5.82,5.89,5.89,0,0,1-.41,2.13c2.46-.9,4.72-2.49,4.72-5.6a6.16,6.16,0,0,0-6.16-6.15c-2.74,0-5.07,1.82-6.86,4.46a6.59,6.59,0,0,1,2.89-.66m-23.72-3.8a6.15,6.15,0,0,0-6.15,6.15c0,3.11,2.25,4.7,4.72,5.6a5.69,5.69,0,0,1-.42-2.13,5.83,5.83,0,0,1,5.82-5.82,6.59,6.59,0,0,1,2.89.66c-1.79-2.64-4.12-4.46-6.86-4.46m12.8,19.09h2.06c.22-8.47.67-14.77,1.65-17.54,1.6-4.58,2.42-7.19,2.42-8.72,0-2.32-1.86-4.88-3.35-6.94l-.17-.24-1.58-2.19-1.57,2.19-.18.24c-1.49,2.06-3.35,4.62-3.35,6.94,0,1.52.82,4.13,2.43,8.72,1,2.74,1.35,9.07,1.64,17.54M191,135.34a2.36,2.36,0,0,0,2.36,2.36h11a24.49,24.49,0,0,0,.85-6.44v-36H153.78v36a24.49,24.49,0,0,0,.85,6.44h11a2.36,2.36,0,0,0,2.36-2.36c0-.75-.35-1.44-1.51-2.21-6-1.3-9.06-4.11-9.06-8.37a8.21,8.21,0,0,1,8.21-8.2c3.67,0,7.06,2.46,9.54,6.94.13.23.26.48.38.72a19.27,19.27,0,0,0-.7-3.38c-1.72-4.91-2.54-7.57-2.54-9.4,0-3,2.07-5.85,3.74-8.15l.17-.23c1.26-1.74,2.39-3.35,2.4-3.36l.84-1.2.84,1.19s1.15,1.63,2.4,3.37l.17.23c1.67,2.3,3.75,5.16,3.75,8.15,0,1.84-.82,4.49-2.54,9.4a17.82,17.82,0,0,0-.72,3.38c.14-.27.28-.46.42-.72,2.48-4.48,5.87-6.94,9.54-6.94a8.21,8.21,0,0,1,8.21,8.2c0,4.26-3,7.07-9,8.37-1.16.77-1.52,1.46-1.52,2.21M173.55,148.9a3.83,3.83,0,0,0,3,1.66h1v1a6.11,6.11,0,0,0,1.86,4.25,6,6,0,0,0,1.87-4.25v-1h1a3.85,3.85,0,0,0,3-1.66,8.29,8.29,0,0,1-5.93-4.17,8.29,8.29,0,0,1-5.92,4.17m-18.28-9.14c1.94,5.39,5.78,10.48,11.47,15.2A61,61,0,0,0,179.49,163,61.48,61.48,0,0,0,192.24,155c5.68-4.72,9.52-9.81,11.46-15.2H193.33a4.42,4.42,0,0,1-1.82-8.45,3.76,3.76,0,0,0-2.15-6.84c-5.58,0-6.6,9.36-6.78,12.16,0,.41,0,.77,0,1.07h2.82v2.06H180.5v1a6.21,6.21,0,0,0,6.2,6.21h1v1a4.34,4.34,0,0,1-1.81,3.37,6,6,0,0,1-2.59,1.18,8.45,8.45,0,0,1-3.27,5.52l-.59.41-.59-.41a8.5,8.5,0,0,1-3.27-5.52,6,6,0,0,1-2.58-1.18,4.3,4.3,0,0,1-1.81-3.36v-1h1a6.21,6.21,0,0,0,6.2-6.21v-1h-4.85V137.7h2.82c0-.33,0-.72,0-1.17-.2-2.91-1.26-12.06-6.78-12.06a3.76,3.76,0,0,0-2.15,6.84,4.42,4.42,0,0,1-1.82,8.45Zm24.22,25.52-.41-.17a61.38,61.38,0,0,1-13.62-8.54c-9-7.44-13.73-16.19-13.73-25.31v-38h19.1l-.9-.9a3.09,3.09,0,0,1,0-4.36,3,3,0,0,1,2.18-.91h6.35V85h-3.09V82.94h3.09V79.86h2v3.08h3.09V85h-3.09v2h6.35A3.09,3.09,0,0,1,189,92.32l-.9.9h19.1v38c0,9.12-4.75,17.87-13.73,25.31a61.38,61.38,0,0,1-13.62,8.54Z"/><path class="cls-1" d="M94.09,229.64l.51-.87a.31.31,0,0,1,.47-.1,4.69,4.69,0,0,0,2.12.87,1.17,1.17,0,0,0,1.27-1.08c0-.72-.6-1.21-1.77-1.68s-2.64-1.37-2.64-3c0-1.24.93-2.69,3.15-2.69a4.92,4.92,0,0,1,2.8.94.34.34,0,0,1,.09.46l-.53.8c-.12.17-.33.28-.49.17a4.68,4.68,0,0,0-1.95-.77,1.11,1.11,0,0,0-1.23,1c0,.66.51,1.11,1.65,1.57,1.36.55,2.93,1.36,2.93,3.16a3,3,0,0,1-3.22,2.78,4.56,4.56,0,0,1-3.09-1.09C94,229.93,94,229.86,94.09,229.64Z"/><path class="cls-1" d="M107.88,221.06a4.71,4.71,0,0,1,3.39,1.31.26.26,0,0,1,0,.39l-.86.88a.23.23,0,0,1-.35,0,3.3,3.3,0,0,0-2.15-.83,3.25,3.25,0,0,0,0,6.5,3.39,3.39,0,0,0,2.14-.79.25.25,0,0,1,.35,0l.87.89a.27.27,0,0,1,0,.38,4.85,4.85,0,0,1-3.41,1.36,5,5,0,1,1,0-10.09Z"/><path class="cls-1" d="M114.33,221.47a.28.28,0,0,1,.27-.27h1.3a.27.27,0,0,1,.26.27v3.71h4.57v-3.71a.27.27,0,0,1,.27-.27h1.29a.27.27,0,0,1,.26.27v9.27a.27.27,0,0,1-.26.27H121a.27.27,0,0,1-.27-.27v-3.86h-4.57v3.86a.27.27,0,0,1-.26.27h-1.3a.28.28,0,0,1-.27-.27Z"/><path class="cls-1" d="M130.73,221.06a5,5,0,1,1-5,5.06A5,5,0,0,1,130.73,221.06Zm0,8.27a3.23,3.23,0,1,0-3.21-3.21A3.24,3.24,0,0,0,130.73,229.33Z"/><path class="cls-1" d="M143.32,221.06a5,5,0,1,1-5,5.06A5,5,0,0,1,143.32,221.06Zm0,8.27a3.23,3.23,0,1,0-3.21-3.21A3.24,3.24,0,0,0,143.32,229.33Z"/><path class="cls-1" d="M151.51,221.47a.27.27,0,0,1,.27-.27h1.29a.27.27,0,0,1,.26.27v7.86h3.57a.26.26,0,0,1,.27.26v1.15a.27.27,0,0,1-.27.27h-5.12a.27.27,0,0,1-.27-.27Z"/><path class="cls-1" d="M168.8,221.06a5,5,0,1,1-5,5.06A5,5,0,0,1,168.8,221.06Zm0,8.27a3.23,3.23,0,1,0-3.2-3.21A3.23,3.23,0,0,0,168.8,229.33Z"/><path class="cls-1" d="M177,221.47a.28.28,0,0,1,.27-.27H183a.27.27,0,0,1,.27.27v1.15a.26.26,0,0,1-.27.26h-4.14v2.64h3.46a.26.26,0,0,1,.26.26v1.15a.27.27,0,0,1-.26.27h-3.46v3.54a.28.28,0,0,1-.27.27h-1.29a.28.28,0,0,1-.27-.27Z"/><path class="cls-1" d="M191.81,221.27a.24.24,0,0,1,.25-.21h.22a.25.25,0,0,1,.24.14l3.08,6.61h.05l3.08-6.61a.24.24,0,0,1,.23-.14h.23a.24.24,0,0,1,.25.21l1.65,9.42a.24.24,0,0,1-.25.32h-1.27a.3.3,0,0,1-.27-.21l-.83-5.31h0L196,231a.24.24,0,0,1-.24.16h-.25a.24.24,0,0,1-.24-.16l-2.48-5.5h0l-.81,5.31a.27.27,0,0,1-.25.21h-1.26a.26.26,0,0,1-.27-.32Z"/><path class="cls-1" d="M204.27,221.47a.28.28,0,0,1,.27-.27h5.7a.27.27,0,0,1,.27.27v1.15a.26.26,0,0,1-.27.26H206.1v2.3h3.46a.27.27,0,0,1,.26.27v1.16a.27.27,0,0,1-.26.27H206.1v2.45h4.14a.26.26,0,0,1,.27.26v1.15a.27.27,0,0,1-.27.27h-5.7a.28.28,0,0,1-.27-.27Z"/><path class="cls-1" d="M213.83,221.47a.27.27,0,0,1,.26-.27h3.32a4.91,4.91,0,1,1,0,9.81h-3.32a.27.27,0,0,1-.26-.27Zm3.41,7.83a3.2,3.2,0,0,0,0-6.4h-1.6v6.4Z"/><path class="cls-1" d="M225.47,221.47a.28.28,0,0,1,.27-.27H227a.28.28,0,0,1,.27.27v9.27a.28.28,0,0,1-.27.27h-1.3a.28.28,0,0,1-.27-.27Z"/><path class="cls-1" d="M235.49,221.06a4.73,4.73,0,0,1,3.39,1.31.25.25,0,0,1,0,.39l-.85.88a.23.23,0,0,1-.35,0,3.31,3.31,0,0,0-2.16-.83,3.25,3.25,0,0,0,0,6.5,3.39,3.39,0,0,0,2.14-.79.25.25,0,0,1,.35,0l.87.89a.27.27,0,0,1,0,.38,4.81,4.81,0,0,1-3.4,1.36,5,5,0,1,1,0-10.09Z"/><path class="cls-1" d="M241.94,221.47a.27.27,0,0,1,.26-.27h1.3a.28.28,0,0,1,.27.27v9.27a.28.28,0,0,1-.27.27h-1.3a.27.27,0,0,1-.26-.27Z"/><path class="cls-1" d="M247.56,221.31a.27.27,0,0,1,.27-.25h.35l5.83,6.19h0v-5.78a.27.27,0,0,1,.27-.27h1.28a.28.28,0,0,1,.27.27v9.43a.27.27,0,0,1-.27.25h-.33l-5.86-6.43h0v6a.27.27,0,0,1-.27.27h-1.27a.28.28,0,0,1-.27-.27Z"/><path class="cls-1" d="M259.65,221.47a.27.27,0,0,1,.27-.27h5.7a.27.27,0,0,1,.26.27v1.15a.26.26,0,0,1-.26.26h-4.15v2.3h3.46a.28.28,0,0,1,.27.27v1.16a.28.28,0,0,1-.27.27h-3.46v2.45h4.15a.26.26,0,0,1,.26.26v1.15a.27.27,0,0,1-.26.27h-5.7a.27.27,0,0,1-.27-.27Z"/><path class="cls-1" d="M86.18,255.72a.26.26,0,0,1,.27-.26h3.81a3,3,0,0,1,3,3,3.13,3.13,0,0,1-2.07,2.85l1.91,3.55a.26.26,0,0,1-.23.41h-1.1a.27.27,0,0,1-.22-.12l-1.86-3.72H87.62V265a.27.27,0,0,1-.26.27h-.91a.26.26,0,0,1-.27-.27Zm4,4.5a1.74,1.74,0,0,0,1.71-1.74,1.72,1.72,0,0,0-1.71-1.67H87.65v3.41Z"/><path class="cls-1" d="M96.76,255.72a.26.26,0,0,1,.27-.26h5.6a.26.26,0,0,1,.26.26v.79a.26.26,0,0,1-.26.26H98.2v2.86h3.74a.28.28,0,0,1,.27.27v.78a.28.28,0,0,1-.27.27H98.2v3h4.43a.26.26,0,0,1,.26.26V265a.26.26,0,0,1-.26.27H97a.26.26,0,0,1-.27-.27Z"/><path class="cls-1" d="M105.69,263.85c.12-.19.23-.4.36-.58a.32.32,0,0,1,.48-.11,4.08,4.08,0,0,0,2.24,1,1.41,1.41,0,0,0,1.58-1.31c0-.84-.73-1.37-2.11-1.94s-2.55-1.35-2.55-3c0-1.1.84-2.59,3.06-2.59a4.7,4.7,0,0,1,2.59.82.33.33,0,0,1,.09.48l-.35.53a.33.33,0,0,1-.49.14,4.28,4.28,0,0,0-1.89-.7c-1.18,0-1.59.74-1.59,1.26,0,.8.62,1.29,1.78,1.77,1.63.65,3,1.42,3,3.13a2.87,2.87,0,0,1-3.13,2.65,4.51,4.51,0,0,1-3-1.11A.28.28,0,0,1,105.69,263.85Z"/><path class="cls-1" d="M115.14,255.72a.26.26,0,0,1,.26-.26H121a.26.26,0,0,1,.26.26v.79a.26.26,0,0,1-.26.26h-4.43v2.86h3.74a.27.27,0,0,1,.26.27v.78a.27.27,0,0,1-.26.27h-3.74v3H121a.26.26,0,0,1,.26.26V265a.26.26,0,0,1-.26.27H115.4a.26.26,0,0,1-.26-.27Z"/><path class="cls-1" d="M123.7,264.9l4.3-9.43a.33.33,0,0,1,.24-.15h.14a.33.33,0,0,1,.24.15l4.27,9.43a.25.25,0,0,1-.24.36h-.88a.31.31,0,0,1-.32-.21l-.87-1.92H126c-.28.65-.58,1.28-.86,1.92a.34.34,0,0,1-.32.21h-.88A.25.25,0,0,1,123.7,264.9Zm6.35-3-1.73-3.84h-.07l-1.71,3.84Z"/><path class="cls-1" d="M135.62,255.72a.27.27,0,0,1,.27-.26h3.81a3,3,0,0,1,3.05,3,3.11,3.11,0,0,1-2.07,2.85l1.92,3.55a.27.27,0,0,1-.24.41h-1.09a.25.25,0,0,1-.22-.12l-1.87-3.72h-2.11V265a.28.28,0,0,1-.27.27h-.91a.27.27,0,0,1-.27-.27Zm4,4.5a1.74,1.74,0,0,0,1.71-1.74,1.72,1.72,0,0,0-1.71-1.67H137.1v3.41Z"/><path class="cls-1" d="M150.48,255.32a4.83,4.83,0,0,1,3.39,1.3.26.26,0,0,1,0,.39l-.62.63c-.1.13-.22.13-.35,0a3.81,3.81,0,0,0-2.42-.94,3.64,3.64,0,0,0,0,7.27,3.74,3.74,0,0,0,2.41-.92.26.26,0,0,1,.34,0l.64.63a.27.27,0,0,1,0,.38,4.79,4.79,0,0,1-3.41,1.36,5,5,0,1,1,0-10.08Z"/><path class="cls-1" d="M157.09,255.72a.27.27,0,0,1,.27-.26h.92a.26.26,0,0,1,.27.26v3.91h5.13v-3.91a.26.26,0,0,1,.26-.26h.93a.26.26,0,0,1,.26.26V265a.27.27,0,0,1-.26.27h-.93a.26.26,0,0,1-.26-.27v-4h-5.13v4a.26.26,0,0,1-.27.27h-.92a.28.28,0,0,1-.27-.27Z"/><path class="cls-1" d="M174.79,255.53a.27.27,0,0,1,.25-.21h.22a.27.27,0,0,1,.24.15l2.93,7.16h.06l2.91-7.16a.27.27,0,0,1,.24-.15h.22a.27.27,0,0,1,.25.21l1.73,9.41a.24.24,0,0,1-.25.32h-.92a.29.29,0,0,1-.26-.2l-1-6.26h0l-2.52,6.45a.24.24,0,0,1-.24.15h-.25a.26.26,0,0,1-.24-.15l-2.54-6.45h0l-1,6.26a.27.27,0,0,1-.25.2h-.91a.25.25,0,0,1-.27-.32Z"/><path class="cls-1" d="M187.13,255.72a.27.27,0,0,1,.27-.26h.92a.27.27,0,0,1,.27.26V265a.28.28,0,0,1-.27.27h-.92a.28.28,0,0,1-.27-.27Z"/><path class="cls-1" d="M196.93,255.32a4.83,4.83,0,0,1,3.39,1.3.25.25,0,0,1,0,.39l-.61.63a.21.21,0,0,1-.35,0,3.83,3.83,0,0,0-2.42-.94,3.64,3.64,0,0,0,0,7.27,3.74,3.74,0,0,0,2.41-.92.25.25,0,0,1,.33,0l.65.63a.27.27,0,0,1,0,.38,4.77,4.77,0,0,1-3.4,1.36,5,5,0,1,1,0-10.08Z"/><path class="cls-1" d="M203.54,255.72a.26.26,0,0,1,.26-.26h3.81a3,3,0,0,1,3.06,3,3.12,3.12,0,0,1-2.08,2.85l1.92,3.55a.27.27,0,0,1-.24.41h-1.09a.25.25,0,0,1-.22-.12l-1.87-3.72H205V265a.28.28,0,0,1-.27.27h-.91a.26.26,0,0,1-.26-.27Zm4,4.5a1.74,1.74,0,0,0,1.71-1.74,1.72,1.72,0,0,0-1.71-1.67H205v3.41Z"/><path class="cls-1" d="M218.36,255.32a5,5,0,1,1-5,5.05A5,5,0,0,1,218.36,255.32Zm0,8.68a3.64,3.64,0,1,0-3.63-3.63A3.63,3.63,0,0,0,218.36,264Z"/><path class="cls-1" d="M226,263.85c.13-.19.24-.4.37-.58a.31.31,0,0,1,.47-.11,4.17,4.17,0,0,0,2.25,1,1.41,1.41,0,0,0,1.58-1.31c0-.84-.73-1.37-2.12-1.94s-2.55-1.35-2.55-3c0-1.1.84-2.59,3.07-2.59a4.74,4.74,0,0,1,2.59.82.34.34,0,0,1,.09.48c-.12.17-.24.36-.35.53s-.3.27-.49.14a4.28,4.28,0,0,0-1.89-.7c-1.18,0-1.59.74-1.59,1.26,0,.8.62,1.29,1.78,1.77,1.63.65,3,1.42,3,3.13a2.86,2.86,0,0,1-3.12,2.65,4.51,4.51,0,0,1-3-1.11C226,264.18,225.87,264.08,226,263.85Z"/><path class="cls-1" d="M239.77,255.32a4.83,4.83,0,0,1,3.39,1.3.26.26,0,0,1,0,.39l-.62.63c-.1.13-.22.13-.35,0a3.81,3.81,0,0,0-2.42-.94,3.64,3.64,0,0,0,0,7.27,3.74,3.74,0,0,0,2.41-.92.26.26,0,0,1,.34,0l.64.63a.27.27,0,0,1,0,.38,4.79,4.79,0,0,1-3.41,1.36,5,5,0,1,1,0-10.08Z"/><path class="cls-1" d="M250.51,255.32a5,5,0,1,1-5,5.05A5,5,0,0,1,250.51,255.32Zm0,8.68a3.64,3.64,0,1,0-3.63-3.63A3.64,3.64,0,0,0,250.51,264Z"/><path class="cls-1" d="M258.86,255.72a.26.26,0,0,1,.27-.26h3.19a3.12,3.12,0,1,1,0,6.24h-2V265a.27.27,0,0,1-.26.27h-.91a.26.26,0,0,1-.27-.27Zm3.38,4.61a1.79,1.79,0,0,0,1.78-1.79,1.73,1.73,0,0,0-1.78-1.68H260.3v3.47Z"/><path class="cls-1" d="M270.42,260.54l-3.27-4.68a.25.25,0,0,1,.22-.4h1a.28.28,0,0,1,.22.12l2.54,3.57,2.53-3.57a.32.32,0,0,1,.22-.12H275a.26.26,0,0,1,.22.4l-3.32,4.67V265a.28.28,0,0,1-.27.27h-.92a.26.26,0,0,1-.27-.27Z"/><path class="cls-1" d="M92.94,281.7l4.3-9.43a.35.35,0,0,1,.24-.15h.14a.33.33,0,0,1,.24.15l4.27,9.43a.24.24,0,0,1-.23.36H101a.32.32,0,0,1-.32-.21l-.87-1.92H95.24c-.28.65-.57,1.28-.85,1.92a.36.36,0,0,1-.33.21h-.88A.25.25,0,0,1,92.94,281.7Zm6.35-3-1.72-3.84H97.5l-1.71,3.84Z"/><path class="cls-1" d="M104.87,272.37a.26.26,0,0,1,.26-.25h.35l6.08,7h0v-6.63a.26.26,0,0,1,.26-.26h.9a.27.27,0,0,1,.27.26V282a.27.27,0,0,1-.27.25h-.36L106.3,275h0v6.83a.26.26,0,0,1-.26.26h-.89a.26.26,0,0,1-.26-.26Z"/><path class="cls-1" d="M117,272.52a.26.26,0,0,1,.26-.26h3.22a4.9,4.9,0,1,1,0,9.8h-3.22a.26.26,0,0,1-.26-.26Zm3.28,8.21a3.57,3.57,0,0,0,0-7.14H118.4v7.14Z"/><path class="cls-1" d="M133.26,272.52a.26.26,0,0,1,.26-.26h.93a.26.26,0,0,1,.26.26v3.91h5.13v-3.91a.26.26,0,0,1,.27-.26H141a.27.27,0,0,1,.27.26v9.28a.27.27,0,0,1-.27.26h-.92a.26.26,0,0,1-.27-.26v-4.05h-5.13v4.05a.26.26,0,0,1-.26.26h-.93a.26.26,0,0,1-.26-.26Z"/><path class="cls-1" d="M145.26,272.52a.27.27,0,0,1,.27-.26h.92a.27.27,0,0,1,.27.26v9.28a.27.27,0,0,1-.27.26h-.92a.27.27,0,0,1-.27-.26Z"/><path class="cls-1" d="M150.12,280.65c.12-.19.23-.4.36-.58A.32.32,0,0,1,151,280a4.08,4.08,0,0,0,2.24,1,1.41,1.41,0,0,0,1.58-1.31c0-.84-.73-1.37-2.11-1.94s-2.55-1.35-2.55-3c0-1.1.84-2.59,3.06-2.59a4.75,4.75,0,0,1,2.6.82.34.34,0,0,1,.08.48l-.35.53a.33.33,0,0,1-.49.14,4.28,4.28,0,0,0-1.89-.7c-1.18,0-1.58.74-1.58,1.26,0,.8.61,1.29,1.77,1.77,1.63.65,3,1.42,3,3.13a2.87,2.87,0,0,1-3.13,2.65,4.54,4.54,0,0,1-3-1.11C150.08,281,150,280.88,150.12,280.65Z"/><path class="cls-1" d="M161.06,273.57h-2.29a.26.26,0,0,1-.26-.26v-.79a.26.26,0,0,1,.26-.26h6a.26.26,0,0,1,.26.26v.79a.26.26,0,0,1-.26.26h-2.29v8.23a.26.26,0,0,1-.26.26h-.93a.26.26,0,0,1-.26-.26Z"/><path class="cls-1" d="M171.8,272.12a5,5,0,1,1-5,5.05A5,5,0,0,1,171.8,272.12Zm0,8.68a3.64,3.64,0,1,0-3.62-3.63A3.64,3.64,0,0,0,171.8,280.8Z"/><path class="cls-1" d="M180.16,272.52a.26.26,0,0,1,.26-.26h.93a.26.26,0,0,1,.26.26v8.24h3.8a.26.26,0,0,1,.26.26v.78a.26.26,0,0,1-.26.26h-5a.26.26,0,0,1-.26-.26Z"/><path class="cls-1" d="M192.4,272.12a5,5,0,1,1-5,5.05A5,5,0,0,1,192.4,272.12Zm0,8.68a3.64,3.64,0,1,0-3.63-3.63A3.63,3.63,0,0,0,192.4,280.8Z"/><path class="cls-1" d="M205.16,272.12a5.1,5.1,0,0,1,3.4,1.3.27.27,0,0,1,0,.39l-.63.66c-.12.13-.23.11-.37,0a3.7,3.7,0,0,0-2.38-1,3.64,3.64,0,0,0,0,7.27,5.08,5.08,0,0,0,2.1-.47v-1.57h-1.37a.25.25,0,0,1-.27-.25v-.82a.25.25,0,0,1,.27-.26h2.55a.26.26,0,0,1,.25.26c0,1.12,0,2.27,0,3.39a.36.36,0,0,1-.11.23,7,7,0,0,1-3.47.92,5,5,0,1,1,0-10.08Z"/><path class="cls-1" d="M214.2,277.34l-3.27-4.68a.25.25,0,0,1,.22-.4h1a.28.28,0,0,1,.22.12L215,276l2.53-3.57a.32.32,0,0,1,.23-.12h1a.26.26,0,0,1,.22.4l-3.32,4.67v4.47a.26.26,0,0,1-.26.26h-.93a.27.27,0,0,1-.27-.26Z"/><path class="cls-1" d="M230.54,272.12a4.83,4.83,0,0,1,3.39,1.3.26.26,0,0,1,0,.39l-.62.63c-.1.13-.22.13-.35,0a3.81,3.81,0,0,0-2.42-.94,3.64,3.64,0,0,0,0,7.27,3.74,3.74,0,0,0,2.41-.92.26.26,0,0,1,.34,0l.64.63a.28.28,0,0,1,0,.38,4.81,4.81,0,0,1-3.41,1.36,5,5,0,1,1,0-10.08Z"/><path class="cls-1" d="M241.28,272.12a5,5,0,1,1-5,5.05A5,5,0,0,1,241.28,272.12Zm0,8.68a3.64,3.64,0,1,0-3.63-3.63A3.64,3.64,0,0,0,241.28,280.8Z"/><path class="cls-1" d="M249.63,272.52a.26.26,0,0,1,.27-.26h3.81a3,3,0,0,1,3,3,3.11,3.11,0,0,1-2.07,2.85l1.92,3.56a.26.26,0,0,1-.24.4h-1.09a.27.27,0,0,1-.23-.12l-1.86-3.72h-2.12v3.58a.26.26,0,0,1-.26.26h-.91a.26.26,0,0,1-.27-.26Zm4,4.5a1.73,1.73,0,0,0,1.7-1.74,1.71,1.71,0,0,0-1.7-1.67h-2.5V277Z"/><path class="cls-1" d="M260.21,272.52a.26.26,0,0,1,.27-.26h5.6a.27.27,0,0,1,.27.26v.79a.27.27,0,0,1-.27.26h-4.43v2.86h3.74a.28.28,0,0,1,.27.27v.78a.27.27,0,0,1-.27.27h-3.74v3h4.43a.27.27,0,0,1,.27.26v.78a.27.27,0,0,1-.27.26h-5.6a.26.26,0,0,1-.27-.26Z"/></svg>