<svg id="Layer_1" data-name="Layer 1" xmlns="http://www.w3.org/2000/svg" viewBox="0 0 360 360"><defs><style>.cls-1{fill:#fff;}.cls-2{fill:#003da5;}</style></defs><path class="cls-1" d="M89.87,184.73l.48-.82a.31.31,0,0,1,.45-.09,4.36,4.36,0,0,0,2,.82,1.1,1.1,0,0,0,1.2-1c0-.67-.57-1.14-1.68-1.59s-2.49-1.3-2.49-2.86c0-1.18.88-2.54,3-2.54a4.64,4.64,0,0,1,2.65.89.33.33,0,0,1,.08.43l-.5.76a.36.36,0,0,1-.47.16,4.26,4.26,0,0,0-1.84-.73,1.05,1.05,0,0,0-1.16.92c0,.63.49,1.05,1.56,1.49,1.28.51,2.77,1.28,2.77,3a2.79,2.79,0,0,1-3.05,2.62,4.24,4.24,0,0,1-2.91-1C89.82,185,89.75,185,89.87,184.73Z"/><path class="cls-1" d="M102.92,176.63a4.48,4.48,0,0,1,3.21,1.23.24.24,0,0,1,0,.37l-.81.83a.21.21,0,0,1-.33,0,3.2,3.2,0,0,0-2-.78,3.08,3.08,0,0,0,0,6.15,3.19,3.19,0,0,0,2-.76.26.26,0,0,1,.33,0l.82.85a.25.25,0,0,1,0,.36,4.56,4.56,0,0,1-3.22,1.28,4.77,4.77,0,1,1,0-9.53Z"/><path class="cls-1" d="M109,177a.26.26,0,0,1,.25-.25h1.23a.25.25,0,0,1,.25.25v3.51h4.32V177a.25.25,0,0,1,.25-.25h1.22a.26.26,0,0,1,.25.25v8.77a.26.26,0,0,1-.25.25h-1.22a.25.25,0,0,1-.25-.25v-3.66h-4.32v3.66a.25.25,0,0,1-.25.25h-1.23a.26.26,0,0,1-.25-.25Z"/><path class="cls-1" d="M124.55,176.63a4.77,4.77,0,1,1-4.76,4.78A4.76,4.76,0,0,1,124.55,176.63Zm0,7.81a3,3,0,1,0-3-3A3,3,0,0,0,124.55,184.44Z"/><path class="cls-1" d="M136.47,176.63a4.77,4.77,0,1,1-4.76,4.78A4.76,4.76,0,0,1,136.47,176.63Zm0,7.81a3,3,0,1,0-3-3A3,3,0,0,0,136.47,184.44Z"/><path class="cls-1" d="M144.23,177a.25.25,0,0,1,.25-.25h1.22a.26.26,0,0,1,.25.25v7.43h3.38a.25.25,0,0,1,.25.25v1.09a.25.25,0,0,1-.25.25h-4.85a.25.25,0,0,1-.25-.25Z"/><path class="cls-1" d="M160.59,176.63a4.77,4.77,0,1,1-4.76,4.78A4.76,4.76,0,0,1,160.59,176.63Zm0,7.81a3,3,0,1,0-3-3A3,3,0,0,0,160.59,184.44Z"/><path class="cls-1" d="M168.35,177a.25.25,0,0,1,.25-.25H174a.25.25,0,0,1,.25.25v1.09a.25.25,0,0,1-.25.25h-3.92v2.49h3.27a.26.26,0,0,1,.25.25v1.09a.26.26,0,0,1-.25.25h-3.27v3.35a.26.26,0,0,1-.25.25H168.6a.25.25,0,0,1-.25-.25Z"/><path class="cls-1" d="M182.37,176.83a.22.22,0,0,1,.23-.2h.22a.24.24,0,0,1,.22.13L186,183h0l2.91-6.25a.22.22,0,0,1,.22-.13h.22a.22.22,0,0,1,.23.2l1.57,8.9a.23.23,0,0,1-.24.3H189.7a.28.28,0,0,1-.25-.2l-.78-5h0L186.31,186a.21.21,0,0,1-.22.14h-.24a.24.24,0,0,1-.23-.14l-2.34-5.21h0l-.77,5a.25.25,0,0,1-.24.2H181a.24.24,0,0,1-.25-.3Z"/><path class="cls-1" d="M194.17,177a.25.25,0,0,1,.25-.25h5.39a.25.25,0,0,1,.25.25v1.09a.25.25,0,0,1-.25.25h-3.92v2.17h3.27a.26.26,0,0,1,.26.25v1.1a.25.25,0,0,1-.26.25h-3.27v2.32h3.92a.25.25,0,0,1,.25.25v1.09a.25.25,0,0,1-.25.25h-5.39a.25.25,0,0,1-.25-.25Z"/><path class="cls-1" d="M203.22,177a.25.25,0,0,1,.24-.25h3.14a4.64,4.64,0,1,1,0,9.27h-3.14a.25.25,0,0,1-.24-.25Zm3.22,7.41a3,3,0,0,0,0-6.06h-1.51v6.06Z"/><path class="cls-1" d="M214.24,177a.26.26,0,0,1,.25-.25h1.23a.26.26,0,0,1,.26.25v8.77a.26.26,0,0,1-.26.25h-1.23a.26.26,0,0,1-.25-.25Z"/><path class="cls-1" d="M223.72,176.63a4.46,4.46,0,0,1,3.2,1.23.25.25,0,0,1,0,.37l-.81.83a.21.21,0,0,1-.33,0,3.2,3.2,0,0,0-2-.78,3.08,3.08,0,0,0,0,6.15,3.19,3.19,0,0,0,2-.76.26.26,0,0,1,.33,0l.82.85a.25.25,0,0,1,0,.36,4.56,4.56,0,0,1-3.22,1.28,4.77,4.77,0,1,1,0-9.53Z"/><path class="cls-1" d="M229.83,177a.26.26,0,0,1,.25-.25h1.23a.26.26,0,0,1,.25.25v8.77a.26.26,0,0,1-.25.25h-1.23a.26.26,0,0,1-.25-.25Z"/><path class="cls-1" d="M235.15,176.87a.25.25,0,0,1,.26-.24h.33l5.51,5.85h0V177a.25.25,0,0,1,.25-.25h1.22a.26.26,0,0,1,.25.25v8.92a.24.24,0,0,1-.25.23h-.32l-5.53-6.07h0v5.69a.25.25,0,0,1-.25.25h-1.2a.26.26,0,0,1-.26-.25Z"/><path class="cls-1" d="M246.6,177a.25.25,0,0,1,.25-.25h5.39a.25.25,0,0,1,.25.25v1.09a.25.25,0,0,1-.25.25h-3.92v2.17h3.27a.26.26,0,0,1,.25.25v1.1a.25.25,0,0,1-.25.25h-3.27v2.32h3.92a.25.25,0,0,1,.25.25v1.09a.25.25,0,0,1-.25.25h-5.39a.25.25,0,0,1-.25-.25Z"/><path class="cls-1" d="M90.57,209.69a.27.27,0,0,1,.26-.27h3.81a3,3,0,0,1,3.06,3,3.11,3.11,0,0,1-2.08,2.84l1.92,3.56a.27.27,0,0,1-.24.41H96.21a.25.25,0,0,1-.22-.13l-1.87-3.71H92V219a.28.28,0,0,1-.27.27h-.91a.27.27,0,0,1-.26-.27Zm4,4.49a1.74,1.74,0,0,0,1.71-1.73,1.72,1.72,0,0,0-1.71-1.67H92v3.4Z"/><path class="cls-1" d="M101.15,209.69a.27.27,0,0,1,.26-.27H107a.27.27,0,0,1,.26.27v.78a.27.27,0,0,1-.26.27h-4.43v2.85h3.74a.28.28,0,0,1,.27.27v.78a.27.27,0,0,1-.27.27h-3.74v3H107a.27.27,0,0,1,.26.27V219a.27.27,0,0,1-.26.27h-5.61a.27.27,0,0,1-.26-.27Z"/><path class="cls-1" d="M110.07,217.81c.13-.18.24-.39.37-.57a.31.31,0,0,1,.47-.12,4.17,4.17,0,0,0,2.25,1,1.41,1.41,0,0,0,1.58-1.3c0-.84-.73-1.37-2.12-1.95s-2.55-1.34-2.55-3c0-1.09.84-2.59,3.07-2.59a4.72,4.72,0,0,1,2.59.83.33.33,0,0,1,.09.47c-.12.17-.24.37-.35.54a.33.33,0,0,1-.49.13,4.41,4.41,0,0,0-1.9-.7c-1.17,0-1.58.75-1.58,1.27,0,.79.62,1.28,1.78,1.76,1.63.66,3,1.43,3,3.14a2.86,2.86,0,0,1-3.12,2.65,4.51,4.51,0,0,1-3-1.11A.29.29,0,0,1,110.07,217.81Z"/><path class="cls-1" d="M119.52,209.69a.28.28,0,0,1,.27-.27h5.6a.27.27,0,0,1,.27.27v.78a.27.27,0,0,1-.27.27H121v2.85h3.74a.27.27,0,0,1,.26.27v.78a.26.26,0,0,1-.26.27H121v3h4.42a.27.27,0,0,1,.27.27V219a.27.27,0,0,1-.27.27h-5.6a.28.28,0,0,1-.27-.27Z"/><path class="cls-1" d="M128.09,218.86l4.3-9.43a.33.33,0,0,1,.24-.15h.14a.32.32,0,0,1,.23.15l4.28,9.43a.25.25,0,0,1-.24.37h-.88a.35.35,0,0,1-.33-.21L135,217.1h-4.58c-.28.64-.58,1.27-.86,1.92a.36.36,0,0,1-.32.21h-.88A.25.25,0,0,1,128.09,218.86Zm6.34-3-1.72-3.84h-.07l-1.71,3.84Z"/><path class="cls-1" d="M140,209.69a.27.27,0,0,1,.27-.27h3.81a3,3,0,0,1,3,3,3.1,3.1,0,0,1-2.07,2.84l1.92,3.56a.27.27,0,0,1-.24.41h-1.09a.26.26,0,0,1-.23-.13l-1.86-3.71h-2.11V219a.28.28,0,0,1-.27.27h-.91A.27.27,0,0,1,140,219Zm4,4.49a1.73,1.73,0,0,0,1.7-1.73,1.71,1.71,0,0,0-1.7-1.67h-2.5v3.4Z"/><path class="cls-1" d="M154.87,209.28a4.88,4.88,0,0,1,3.39,1.3.26.26,0,0,1,0,.39l-.62.64a.21.21,0,0,1-.35,0,3.78,3.78,0,0,0-2.42-.94,3.64,3.64,0,0,0,0,7.27,3.75,3.75,0,0,0,2.41-.93.25.25,0,0,1,.33,0l.65.63a.28.28,0,0,1,0,.38,4.85,4.85,0,0,1-3.41,1.36,5,5,0,1,1,0-10.09Z"/><path class="cls-1" d="M161.48,209.69a.28.28,0,0,1,.27-.27h.92a.28.28,0,0,1,.27.27v3.9h5.12v-3.9a.27.27,0,0,1,.27-.27h.92a.28.28,0,0,1,.27.27V219a.28.28,0,0,1-.27.27h-.92a.27.27,0,0,1-.27-.27v-4.05h-5.12V219a.28.28,0,0,1-.27.27h-.92a.28.28,0,0,1-.27-.27Z"/><path class="cls-1" d="M179.18,209.49a.28.28,0,0,1,.25-.21h.22a.29.29,0,0,1,.24.15l2.93,7.16h.05l2.92-7.16a.27.27,0,0,1,.24-.15h.22a.29.29,0,0,1,.25.21l1.72,9.41a.24.24,0,0,1-.25.33h-.91a.28.28,0,0,1-.26-.2l-1-6.26h0l-2.52,6.44a.26.26,0,0,1-.24.16h-.25a.26.26,0,0,1-.24-.16l-2.54-6.44h-.05l-1,6.26a.28.28,0,0,1-.25.2h-.91a.26.26,0,0,1-.27-.33Z"/><path class="cls-1" d="M191.52,209.69a.28.28,0,0,1,.27-.27h.92a.28.28,0,0,1,.27.27V219a.28.28,0,0,1-.27.27h-.92a.28.28,0,0,1-.27-.27Z"/><path class="cls-1" d="M201.32,209.28a4.89,4.89,0,0,1,3.39,1.3.26.26,0,0,1,0,.39l-.61.64a.21.21,0,0,1-.35,0,3.78,3.78,0,0,0-2.43-.94,3.64,3.64,0,0,0,0,7.27,3.77,3.77,0,0,0,2.41-.93.25.25,0,0,1,.33,0l.65.63a.27.27,0,0,1,0,.38,4.81,4.81,0,0,1-3.4,1.36,5,5,0,1,1,0-10.09Z"/><path class="cls-1" d="M207.92,209.69a.28.28,0,0,1,.27-.27H212a3,3,0,0,1,3.05,3,3.1,3.1,0,0,1-2.07,2.84l1.92,3.56a.27.27,0,0,1-.24.41h-1.09a.27.27,0,0,1-.23-.13l-1.86-3.71h-2.11V219a.28.28,0,0,1-.27.27h-.91a.28.28,0,0,1-.27-.27Zm4,4.49a1.74,1.74,0,0,0,1.71-1.73,1.72,1.72,0,0,0-1.71-1.67h-2.5v3.4Z"/><path class="cls-1" d="M222.75,209.28a5,5,0,1,1-5,5.06A5,5,0,0,1,222.75,209.28Zm0,8.68a3.64,3.64,0,0,0,3.64-3.62,3.64,3.64,0,1,0-7.27,0A3.63,3.63,0,0,0,222.75,218Z"/><path class="cls-1" d="M230.4,217.81c.13-.18.24-.39.37-.57a.31.31,0,0,1,.47-.12,4.12,4.12,0,0,0,2.24,1,1.42,1.42,0,0,0,1.59-1.3c0-.84-.73-1.37-2.12-1.95s-2.55-1.34-2.55-3c0-1.09.84-2.59,3.07-2.59a4.72,4.72,0,0,1,2.59.83.33.33,0,0,1,.08.47c-.11.17-.23.37-.35.54a.33.33,0,0,1-.49.13,4.35,4.35,0,0,0-1.89-.7c-1.17,0-1.58.75-1.58,1.27,0,.79.62,1.28,1.78,1.76,1.62.66,3,1.43,3,3.14a2.86,2.86,0,0,1-3.12,2.65,4.51,4.51,0,0,1-3-1.11A.29.29,0,0,1,230.4,217.81Z"/><path class="cls-1" d="M244.16,209.28a4.88,4.88,0,0,1,3.39,1.3.26.26,0,0,1,0,.39l-.62.64a.21.21,0,0,1-.35,0,3.78,3.78,0,0,0-2.42-.94,3.64,3.64,0,0,0,0,7.27,3.75,3.75,0,0,0,2.41-.93.25.25,0,0,1,.33,0l.65.63a.28.28,0,0,1,0,.38,4.85,4.85,0,0,1-3.41,1.36,5,5,0,1,1,0-10.09Z"/><path class="cls-1" d="M254.9,209.28a5,5,0,1,1-5,5.06A5,5,0,0,1,254.9,209.28Zm0,8.68a3.64,3.64,0,0,0,3.64-3.62,3.64,3.64,0,1,0-7.27,0A3.63,3.63,0,0,0,254.9,218Z"/><path class="cls-1" d="M263.25,209.69a.27.27,0,0,1,.27-.27h3.19a3.13,3.13,0,1,1,0,6.25h-2V219a.27.27,0,0,1-.26.27h-.91a.27.27,0,0,1-.27-.27Zm3.37,4.6a1.78,1.78,0,0,0,1.78-1.79,1.73,1.73,0,0,0-1.78-1.68h-1.93v3.47Z"/><path class="cls-1" d="M274.81,214.5l-3.28-4.67a.26.26,0,0,1,.23-.41h1a.27.27,0,0,1,.23.13l2.53,3.57,2.54-3.57a.28.28,0,0,1,.22-.13h1.05a.26.26,0,0,1,.23.41l-3.32,4.66V219a.28.28,0,0,1-.27.27h-.92a.27.27,0,0,1-.27-.27Z"/><path class="cls-1" d="M89.25,235.66l4.3-9.43a.33.33,0,0,1,.24-.15h.14a.35.35,0,0,1,.24.15l4.27,9.43a.25.25,0,0,1-.24.37h-.88a.32.32,0,0,1-.32-.21l-.87-1.92H91.55c-.28.64-.58,1.27-.86,1.92a.36.36,0,0,1-.32.21h-.88A.25.25,0,0,1,89.25,235.66Zm6.35-3-1.73-3.84H93.8l-1.71,3.84Z"/><path class="cls-1" d="M101.17,226.33a.27.27,0,0,1,.27-.25h.35l6.08,7h0v-6.62a.28.28,0,0,1,.27-.27h.9a.27.27,0,0,1,.26.27v9.42a.26.26,0,0,1-.26.26h-.37l-6.08-7.23h0v6.82a.27.27,0,0,1-.27.27h-.88a.28.28,0,0,1-.27-.27Z"/><path class="cls-1" d="M113.28,226.49a.27.27,0,0,1,.25-.27h3.22a4.91,4.91,0,1,1,0,9.81h-3.22a.27.27,0,0,1-.25-.27Zm3.28,8.21a3.58,3.58,0,0,0,0-7.15h-1.85v7.15Z"/><path class="cls-1" d="M129.56,226.49a.28.28,0,0,1,.27-.27h.92a.27.27,0,0,1,.27.27v3.9h5.12v-3.9a.28.28,0,0,1,.27-.27h.92a.28.28,0,0,1,.27.27v9.27a.28.28,0,0,1-.27.27h-.92a.28.28,0,0,1-.27-.27v-4H131v4a.27.27,0,0,1-.27.27h-.92a.28.28,0,0,1-.27-.27Z"/><path class="cls-1" d="M141.57,226.49a.28.28,0,0,1,.26-.27h.93a.28.28,0,0,1,.27.27v9.27a.28.28,0,0,1-.27.27h-.93a.28.28,0,0,1-.26-.27Z"/><path class="cls-1" d="M146.42,234.61c.13-.18.24-.39.37-.57a.31.31,0,0,1,.47-.12,4.16,4.16,0,0,0,2.24,1,1.42,1.42,0,0,0,1.59-1.3c0-.84-.73-1.37-2.12-2s-2.55-1.34-2.55-3c0-1.09.84-2.59,3.07-2.59a4.72,4.72,0,0,1,2.59.83.33.33,0,0,1,.09.47c-.12.17-.24.37-.35.54a.34.34,0,0,1-.49.14,4.25,4.25,0,0,0-1.9-.71c-1.17,0-1.58.75-1.58,1.27,0,.79.62,1.28,1.78,1.76,1.62.66,3,1.43,3,3.14a2.86,2.86,0,0,1-3.12,2.65,4.51,4.51,0,0,1-3-1.11A.29.29,0,0,1,146.42,234.61Z"/><path class="cls-1" d="M157.36,227.54h-2.28a.27.27,0,0,1-.27-.27v-.78a.27.27,0,0,1,.27-.27h6a.27.27,0,0,1,.27.27v.78a.27.27,0,0,1-.27.27h-2.28v8.22a.28.28,0,0,1-.27.27h-.92a.28.28,0,0,1-.27-.27Z"/><path class="cls-1" d="M168.11,226.08a5,5,0,1,1-5,5.06A5,5,0,0,1,168.11,226.08Zm0,8.68a3.64,3.64,0,0,0,3.64-3.62,3.64,3.64,0,1,0-7.27,0A3.63,3.63,0,0,0,168.11,234.76Z"/><path class="cls-1" d="M176.46,226.49a.27.27,0,0,1,.27-.27h.92a.28.28,0,0,1,.27.27v8.23h3.79a.27.27,0,0,1,.27.27v.77a.27.27,0,0,1-.27.27h-5a.27.27,0,0,1-.27-.27Z"/><path class="cls-1" d="M188.71,226.08a5,5,0,1,1-5,5.06A5,5,0,0,1,188.71,226.08Zm0,8.68a3.64,3.64,0,0,0,3.64-3.62,3.64,3.64,0,1,0-7.27,0A3.63,3.63,0,0,0,188.71,234.76Z"/><path class="cls-1" d="M201.46,226.08a5.1,5.1,0,0,1,3.41,1.3.28.28,0,0,1,0,.4l-.63.65c-.11.13-.22.12-.36,0a3.76,3.76,0,0,0-2.38-.95,3.64,3.64,0,0,0,0,7.27,4.85,4.85,0,0,0,2.1-.48v-1.57h-1.38a.25.25,0,0,1-.26-.25v-.81a.25.25,0,0,1,.26-.27h2.55a.27.27,0,0,1,.26.27c0,1.12,0,2.27,0,3.39a.36.36,0,0,1-.11.22,7,7,0,0,1-3.48.93,5,5,0,0,1,0-10.09Z"/><path class="cls-1" d="M210.51,231.3l-3.28-4.67a.26.26,0,0,1,.23-.41h1a.3.3,0,0,1,.23.13l2.53,3.57,2.54-3.57a.28.28,0,0,1,.22-.13h1.05a.26.26,0,0,1,.23.41L212,231.29v4.47a.28.28,0,0,1-.27.27h-.92a.27.27,0,0,1-.27-.27Z"/><path class="cls-1" d="M226.85,226.08a4.89,4.89,0,0,1,3.39,1.3.28.28,0,0,1,0,.4l-.61.63a.21.21,0,0,1-.35,0,3.78,3.78,0,0,0-2.43-.94,3.64,3.64,0,0,0,0,7.27,3.77,3.77,0,0,0,2.41-.93.25.25,0,0,1,.33,0l.65.63a.27.27,0,0,1,0,.38,4.83,4.83,0,0,1-3.4,1.36,5,5,0,1,1,0-10.09Z"/><path class="cls-1" d="M237.58,226.08a5,5,0,1,1-5,5.06A5,5,0,0,1,237.58,226.08Zm0,8.68a3.64,3.64,0,0,0,3.65-3.62,3.64,3.64,0,1,0-7.27,0A3.63,3.63,0,0,0,237.58,234.76Z"/><path class="cls-1" d="M245.94,226.49a.27.27,0,0,1,.26-.27H250a3,3,0,0,1,3.06,3,3.11,3.11,0,0,1-2.08,2.84l1.92,3.56a.27.27,0,0,1-.24.41h-1.09a.25.25,0,0,1-.22-.13l-1.87-3.71h-2.11v3.57a.28.28,0,0,1-.27.27h-.91a.27.27,0,0,1-.26-.27Zm4,4.49a1.74,1.74,0,0,0,1.71-1.73,1.72,1.72,0,0,0-1.71-1.67h-2.49V231Z"/><path class="cls-1" d="M256.52,226.49a.27.27,0,0,1,.26-.27h5.61a.27.27,0,0,1,.26.27v.78a.27.27,0,0,1-.26.27H258v2.85h3.74a.27.27,0,0,1,.26.27v.79a.26.26,0,0,1-.26.26H258v3h4.43a.27.27,0,0,1,.26.27v.77a.27.27,0,0,1-.26.27h-5.61a.27.27,0,0,1-.26-.27Z"/><rect class="cls-1" x="89.21" y="164.04" width="15.51" height="1.92"/><rect class="cls-1" x="89.21" y="196.83" width="15.51" height="1.92"/><path class="cls-1" d="M335.09,153.17a.36.36,0,0,0,.36.36h1.75a.37.37,0,0,0,.36-.36v-6l4.38-6.31a.35.35,0,0,0-.3-.55h-2a.37.37,0,0,0-.3.17l-3,4.36-3-4.36a.37.37,0,0,0-.3-.17h-1.94a.35.35,0,0,0-.3.55l4.32,6.33Zm-12.43,0a.37.37,0,0,0,.36.36h1.77a.38.38,0,0,0,.36-.36V142.53h2.9a.36.36,0,0,0,.36-.36v-1.55a.36.36,0,0,0-.36-.36h-8.29a.36.36,0,0,0-.36.36v1.55a.36.36,0,0,0,.36.36h2.9Zm-8.93,0a.37.37,0,0,0,.36.36h1.76a.38.38,0,0,0,.37-.36V140.62a.38.38,0,0,0-.37-.36h-1.76a.37.37,0,0,0-.36.36Zm-12.35-.93a6.13,6.13,0,0,0,4.18,1.48c2.67,0,4.36-1.8,4.36-3.75,0-2.45-2.13-3.55-4-4.29-1.54-.63-2.24-1.23-2.24-2.12a1.51,1.51,0,0,1,1.67-1.33,6.28,6.28,0,0,1,2.63,1,.51.51,0,0,0,.67-.23l.72-1.08a.47.47,0,0,0-.12-.62,6.64,6.64,0,0,0-3.79-1.27c-3,0-4.27,2-4.27,3.64,0,2.23,1.79,3.37,3.57,4.09,1.59.65,2.41,1.31,2.41,2.28a1.59,1.59,0,0,1-1.73,1.46,6.21,6.21,0,0,1-2.86-1.18.45.45,0,0,0-.65.14l-.68,1.17c-.17.31-.08.4.09.57m-10.81-5.94v-3.77h3.1a1.89,1.89,0,0,1,1.87,1.84,1.93,1.93,0,0,1-1.87,1.93Zm-2.48,6.87a.36.36,0,0,0,.36.36h1.75a.37.37,0,0,0,.36-.36v-4.84h2.1l2.52,5a.33.33,0,0,0,.31.17h2a.36.36,0,0,0,.32-.55l-2.6-4.82a4.18,4.18,0,0,0,2.81-3.83,4.11,4.11,0,0,0-4.14-4.07h-5.42a.36.36,0,0,0-.36.36Zm-12.54,0a.36.36,0,0,0,.36.36h7.72a.36.36,0,0,0,.36-.36v-1.55a.37.37,0,0,0-.36-.37H278v-3.31h4.68a.36.36,0,0,0,.36-.36V146a.37.37,0,0,0-.36-.36H278v-3.11h5.61a.36.36,0,0,0,.36-.36v-1.55a.36.36,0,0,0-.36-.36h-7.72a.36.36,0,0,0-.36.36Zm-9.82.34a.33.33,0,0,0,.32.21h.19a.32.32,0,0,0,.32-.21l5.88-12.76a.33.33,0,0,0-.32-.49h-1.93a.37.37,0,0,0-.33.2l-3.64,8.16h-.13l-3.64-8.16a.35.35,0,0,0-.32-.2h-1.94a.33.33,0,0,0-.32.49Zm-11.44-.34a.38.38,0,0,0,.37.36h1.76a.37.37,0,0,0,.36-.36V140.62a.37.37,0,0,0-.36-.36h-1.76a.38.38,0,0,0-.37.36Zm-15.95,0a.37.37,0,0,0,.36.36h1.72a.36.36,0,0,0,.36-.36V145h0l7.93,8.7h.45a.35.35,0,0,0,.36-.34V140.62a.37.37,0,0,0-.36-.36h-1.74a.36.36,0,0,0-.36.36v7.83h0l-7.89-8.38h-.47a.35.35,0,0,0-.36.34Zm-15.18-4.67a5.29,5.29,0,0,0,10.57,0v-7.88a.37.37,0,0,0-.36-.36h-1.8a.36.36,0,0,0-.36.36v7.77a2.76,2.76,0,1,1-5.52,0v-7.75a.36.36,0,0,0-.36-.36h-1.81a.38.38,0,0,0-.36.36Zm-18,3.74a6.09,6.09,0,0,0,4.17,1.48c2.67,0,4.36-1.8,4.36-3.75,0-2.45-2.12-3.55-4-4.29-1.54-.63-2.24-1.23-2.24-2.12a1.51,1.51,0,0,1,1.67-1.33,6.28,6.28,0,0,1,2.63,1,.51.51,0,0,0,.67-.23l.72-1.08a.47.47,0,0,0-.11-.62,6.65,6.65,0,0,0-3.8-1.27c-3,0-4.26,2-4.26,3.64,0,2.23,1.78,3.37,3.56,4.09,1.59.65,2.41,1.31,2.41,2.28a1.59,1.59,0,0,1-1.73,1.46,6.21,6.21,0,0,1-2.86-1.18.45.45,0,0,0-.65.14l-.68,1.17c-.17.31-.07.4.1.57m-6.62.93a.37.37,0,0,0,.36.36h1.76a.37.37,0,0,0,.36-.36V140.62a.37.37,0,0,0-.36-.36h-1.76a.37.37,0,0,0-.36.36Zm-15.17-4.67a5.28,5.28,0,0,0,10.56,0v-7.88a.37.37,0,0,0-.36-.36h-1.8a.36.36,0,0,0-.36.36v7.77a2.76,2.76,0,1,1-5.52,0v-7.75a.36.36,0,0,0-.36-.36h-1.8a.37.37,0,0,0-.36.36Zm-14.85-1.59a4.35,4.35,0,1,1,4.34,4.34,4.38,4.38,0,0,1-4.34-4.34m-2.47,0a6.82,6.82,0,1,0,6.81-6.84,6.77,6.77,0,0,0-6.81,6.84m-9.64,6.26a.36.36,0,0,0,.36.36h6.94a.36.36,0,0,0,.36-.36v-1.55a.37.37,0,0,0-.36-.37h-4.83V140.62a.37.37,0,0,0-.36-.36h-1.75a.36.36,0,0,0-.36.36Zm-14.94,0a.37.37,0,0,0,.36.36h1.76a.37.37,0,0,0,.36-.36V142.53h2.91a.36.36,0,0,0,.36-.36v-1.55a.36.36,0,0,0-.36-.36h-8.29a.36.36,0,0,0-.36.36v1.55a.36.36,0,0,0,.36.36h2.9Zm-17.68,0a.37.37,0,0,0,.36.36h1.72a.36.36,0,0,0,.36-.36V145h0l7.93,8.7h.45a.35.35,0,0,0,.36-.34V140.62a.37.37,0,0,0-.36-.36H132.9a.36.36,0,0,0-.36.36v7.83h0l-7.89-8.38h-.47a.35.35,0,0,0-.36.34Zm-7.21,0a.37.37,0,0,0,.36.36h1.77a.38.38,0,0,0,.36-.36V140.62a.38.38,0,0,0-.36-.36H117a.37.37,0,0,0-.36.36ZM105.29,149l1.86-4.17h0l1.9,4.17Zm-4.06,4.53h1.65a.58.58,0,0,0,.55-.38l.93-2.05H110l.93,2.05a.53.53,0,0,0,.55.38h1.65a.34.34,0,0,0,.32-.49l-5.84-12.77a.32.32,0,0,0-.32-.2h-.19a.33.33,0,0,0-.32.2L100.91,153a.33.33,0,0,0,.32.49m-11-1.29a6.09,6.09,0,0,0,4.17,1.48c2.68,0,4.36-1.8,4.36-3.75,0-2.45-2.12-3.55-4-4.29-1.54-.63-2.24-1.23-2.24-2.12a1.51,1.51,0,0,1,1.67-1.33,6.34,6.34,0,0,1,2.64,1,.5.5,0,0,0,.66-.23l.72-1.08a.46.46,0,0,0-.11-.62,6.65,6.65,0,0,0-3.8-1.27c-3,0-4.26,2-4.26,3.64,0,2.23,1.78,3.37,3.56,4.09,1.6.65,2.41,1.31,2.41,2.28a1.58,1.58,0,0,1-1.72,1.46,6.26,6.26,0,0,1-2.87-1.18.43.43,0,0,0-.64.14l-.69,1.17c-.17.31-.07.4.1.57"/><path class="cls-1" d="M45.13,208.41A60,60,0,0,1,31.74,200c-9-7.44-13.74-16.26-13.74-25.5v-38H34.51a4.59,4.59,0,0,1-.1-1,4.88,4.88,0,0,1,4.87-4.87h1.15v-3.9h2.92v-2.93H49.2v2.93h2.92v3.9h1.15A4.88,4.88,0,0,1,58,136.51H74.55v38c0,9.24-4.75,18.06-13.74,25.5a60,60,0,0,1-13.39,8.38l-1.15.49Z"/><path class="cls-2" d="M46.27,206.78l-.38-.16A58,58,0,0,1,33,198.53c-8.52-7.06-13-15.36-13-24V138.46H38.07l-.85-.86a2.93,2.93,0,0,1,0-4.14,2.89,2.89,0,0,1,2.06-.85h6v-2H42.38v-1.95H45.3v-2.93h2v2.93h2.92v1.95H47.25v2h6a2.92,2.92,0,0,1,2.07,5l-.86.86H72.6v36.07c0,8.64-4.51,16.94-13,24a58,58,0,0,1-12.91,8.09Zm-23-24.2q2.76,7.68,10.87,14.42a57.87,57.87,0,0,0,12.08,7.65A57.58,57.58,0,0,0,58.36,197q8.1-6.72,10.87-14.42H59.41a4.19,4.19,0,0,1-1.73-8,3.56,3.56,0,0,0-2-6.48c-5.29,0-6.26,8.87-6.43,11.53,0,.38,0,.73,0,1h2.67v2H47.24v.94a5.88,5.88,0,0,0,5.88,5.88h1v1a4.1,4.1,0,0,1-1.72,3.2,5.88,5.88,0,0,1-2.45,1.12,8,8,0,0,1-3.1,5.22l-.56.39-.56-.39a8,8,0,0,1-3.1-5.22,6,6,0,0,1-2.45-1.12,4.1,4.1,0,0,1-1.72-3.19v-1h1a5.89,5.89,0,0,0,5.88-5.88v-.94h-4.6v-2h2.67c0-.31,0-.68,0-1.1-.19-2.77-1.2-11.44-6.43-11.44a3.56,3.56,0,0,0-2,6.48,4.19,4.19,0,0,1-1.73,8Zm17.32,8.67a3.67,3.67,0,0,0,2.88,1.58h1v1a5.77,5.77,0,0,0,1.76,4,5.73,5.73,0,0,0,1.77-4v-1h1a3.66,3.66,0,0,0,2.88-1.58,7.84,7.84,0,0,1-5.62-3.95A7.82,7.82,0,0,1,40.64,191.25Zm16.52-12.86a2.24,2.24,0,0,0,2.25,2.24H69.84a23.23,23.23,0,0,0,.81-6.1V140.41H21.9v34.12a23.23,23.23,0,0,0,.81,6.1H33.14a2.24,2.24,0,0,0,2.25-2.24c0-.71-.34-1.36-1.44-2.09-5.7-1.23-8.59-3.9-8.59-7.93a7.79,7.79,0,0,1,7.78-7.79c3.49,0,6.7,2.34,9,6.59.13.22.25.45.37.68a18.42,18.42,0,0,0-.67-3.2c-1.64-4.66-2.41-7.18-2.41-8.92,0-2.83,2-5.54,3.54-7.72l.17-.23c1.19-1.64,2.26-3.17,2.27-3.18l.8-1.14.8,1.14s1.08,1.54,2.27,3.18l.17.22c1.58,2.18,3.55,4.9,3.55,7.73,0,1.74-.78,4.26-2.41,8.92a16.29,16.29,0,0,0-.68,3.2c.13-.25.26-.44.39-.68,2.36-4.25,5.57-6.59,9.06-6.59a7.79,7.79,0,0,1,7.78,7.79c0,4-2.89,6.7-8.59,7.93C57.5,177,57.16,177.68,57.16,178.39Zm-11.87,2.24h1.94c.21-8,.65-14,1.57-16.63,1.52-4.34,2.3-6.82,2.3-8.27,0-2.2-1.77-4.63-3.18-6.58l-.16-.22c-.56-.77-1.09-1.51-1.5-2.09l-1.49,2.09-.17.22c-1.41,1.95-3.17,4.38-3.17,6.58,0,1.45.77,3.92,2.3,8.27C44.64,166.6,45,172.6,45.29,180.63Zm-12.15-18.1a5.84,5.84,0,0,0-5.83,5.84c0,2.94,2.14,4.45,4.48,5.31a5.39,5.39,0,0,1-.39-2,5.51,5.51,0,0,1,5.51-5.51,6.12,6.12,0,0,1,2.74.62C38,164.26,35.74,162.53,33.14,162.53Zm22.5,3.61a5.51,5.51,0,0,1,5.51,5.51,5.39,5.39,0,0,1-.39,2c2.34-.86,4.48-2.37,4.48-5.31a5.84,5.84,0,0,0-5.83-5.84c-2.61,0-4.82,1.73-6.51,4.23A6.12,6.12,0,0,1,55.64,166.14Zm-8.39-27.68h4.47L54,136.22a1,1,0,0,0,0-1.38,1,1,0,0,0-.69-.28h-6Zm-6.42,0H45.3v-3.9h-6a1,1,0,0,0-.69.28,1,1,0,0,0,0,1.38Z"/></svg>